<?xml version="1.0" encoding="UTF-8"?>
<svg version="1.1" xmlns="http://www.w3.org/2000/svg" width="408" height="612">
<path d="M0 0 C13.1826124 5.73271922 25.54303002 13.32486343 38.00097656 20.45507812 C38.91202148 20.97650391 39.82306641 21.49792969 40.76171875 22.03515625 C41.67018555 22.55529297 42.57865234 23.07542969 43.51464844 23.61132812 C48.60346924 26.5208264 53.70527945 29.39645844 58.8684082 32.17260742 C63.02113215 34.43045978 67.15065434 36.72932047 71.28125 39.02734375 C72.11579712 39.49132568 72.95034424 39.95530762 73.81018066 40.43334961 C75.85667485 41.57118574 77.90301645 42.70929531 79.94921875 43.84765625 C80.39074454 55.2602468 80.72764979 66.67078874 80.93365002 78.09019947 C81.03256627 83.39418718 81.16648249 88.69230989 81.38256836 93.99291992 C81.59008509 99.11579227 81.7028038 104.23305606 81.75188637 109.35980797 C81.78682009 111.30816758 81.85506558 113.25624102 81.95808983 115.20218849 C82.58759281 127.59299837 82.58759281 127.59299837 79.94921875 132.84765625 C75.26894645 137.60329578 69.23076175 140.30728615 63.16515541 142.88973045 C60.39778727 144.0860342 57.80682469 145.52592499 55.19921875 147.03515625 C52.31148484 148.59248578 49.41436677 150.1312069 46.515625 151.66796875 C45.26423568 152.33186684 44.01293594 152.99593381 42.76171875 153.66015625 C41.81703735 154.16107788 41.81703735 154.16107788 40.85327148 154.67211914 C36.11254905 157.19767368 31.43173918 159.81907056 26.76171875 162.47265625 C21.11089375 165.67872075 15.41934719 168.73529733 9.55859375 171.546875 C6.96858914 172.78621377 6.96858914 172.78621377 4.71484375 174.2421875 C0.03332845 177.10008928 0.03332845 177.10008928 -2.9296875 176.41015625 C-5.08449289 175.36540212 -7.03638794 174.14262337 -9.05078125 172.84765625 C-10.8159657 171.87895747 -12.587207 170.92124136 -14.36328125 169.97265625 C-16.25950261 168.93169611 -18.15533286 167.89002321 -20.05078125 166.84765625 C-21.88371813 165.84692975 -23.71704818 164.84692306 -25.55078125 163.84765625 C-26.46730469 163.3475 -27.38382813 162.84734375 -28.328125 162.33203125 C-30.06950916 161.3826396 -31.81162705 160.43459176 -33.5546875 159.48828125 C-49.50668138 150.81818992 -65.3061632 141.88805395 -81.05078125 132.84765625 C-81.07965939 129.36850684 -81.09753812 125.88938794 -81.11328125 122.41015625 C-81.12166016 121.41693359 -81.13003906 120.42371094 -81.13867188 119.40039062 C-81.14189453 118.45615234 -81.14511719 117.51191406 -81.1484375 116.5390625 C-81.15367432 115.66451416 -81.15891113 114.78996582 -81.16430664 113.88891602 C-81.05078125 111.84765625 -81.05078125 111.84765625 -80.05078125 110.84765625 C-77.20743077 110.7477865 -74.39380962 110.70887744 -71.55078125 110.72265625 C-70.75285156 110.71878906 -69.95492187 110.71492188 -69.1328125 110.7109375 C-63.17738892 110.72104858 -63.17738892 110.72104858 -62.05078125 111.84765625 C-61.97851623 113.70053127 -61.96696905 115.55599503 -61.98828125 117.41015625 C-61.99730469 118.42207031 -62.00632813 119.43398438 -62.015625 120.4765625 C-62.02722656 121.25902344 -62.03882813 122.04148437 -62.05078125 122.84765625 C-61.20644531 123.09773438 -60.36210937 123.3478125 -59.4921875 123.60546875 C-55.74665203 124.95743275 -52.41898705 126.73433659 -48.98828125 128.72265625 C-48.31361816 129.10760254 -47.63895508 129.49254883 -46.94384766 129.88916016 C-44.64308458 131.20336431 -42.34690019 132.5253562 -40.05078125 133.84765625 C-37.27500235 135.44042342 -34.49836546 137.03167508 -31.72094727 138.62158203 C-29.89078341 139.66990194 -28.06179659 140.72028007 -26.23413086 141.77294922 C-21.8938987 144.26452575 -17.53987051 146.63176538 -13.05078125 148.84765625 C-11.58318359 149.69457031 -11.58318359 149.69457031 -10.0859375 150.55859375 C-8.61447266 151.38230469 -8.61447266 151.38230469 -7.11328125 152.22265625 C-5.64568359 153.06957031 -5.64568359 153.06957031 -4.1484375 153.93359375 C0.18280017 155.21166388 2.02721976 153.93243977 5.94921875 151.84765625 C6.99078125 151.32429687 8.03234375 150.8009375 9.10546875 150.26171875 C18.00019334 145.50262545 26.79658573 140.58136307 35.56445312 135.59228516 C38.35599887 134.0046785 41.151424 132.42422238 43.94921875 130.84765625 C44.91923828 130.29883789 45.88925781 129.75001953 46.88867188 129.18457031 C47.84193359 128.6531543 48.79519531 128.12173828 49.77734375 127.57421875 C50.6271582 127.09807129 51.47697266 126.62192383 52.35253906 126.13134766 C54.94921875 124.84765625 54.94921875 124.84765625 60.94921875 122.84765625 C60.61921875 100.07765625 60.28921875 77.30765625 59.94921875 53.84765625 C54.33921875 50.87765625 48.72921875 47.90765625 42.94921875 44.84765625 C37.63671875 41.66015625 37.63671875 41.66015625 35.3359375 40.2421875 C31.62424401 38.07348934 27.753488 36.24156306 23.89453125 34.3515625 C21.12159168 32.93567161 18.47794115 31.41149709 15.82421875 29.78515625 C7.42370228 24.24644523 7.42370228 24.24644523 -2.05078125 21.66015625 C-5.64305187 23.0820967 -8.74892258 24.92360021 -12.01953125 26.97265625 C-20.08472917 31.96143847 -28.41110011 36.6105973 -36.92578125 40.78515625 C-38.96801254 41.80485956 -41.00959793 42.82585679 -43.05078125 43.84765625 C-43.79279785 44.20972168 -44.53481445 44.57178711 -45.29931641 44.94482422 C-47.79504274 46.17459523 -50.26668716 47.44517317 -52.73828125 48.72265625 C-53.54185059 49.10929443 -54.34541992 49.49593262 -55.17333984 49.89428711 C-55.9205127 50.2888208 -56.66768555 50.68335449 -57.4375 51.08984375 C-58.10998779 51.42870605 -58.78247559 51.76756836 -59.4753418 52.11669922 C-61.90685191 54.45431328 -61.90685191 54.45431328 -62.05078125 61.84765625 C-35.65078125 61.84765625 -9.25078125 61.84765625 17.94921875 61.84765625 C16.97560077 66.71574613 15.9076455 68.99273655 12.94921875 72.84765625 C12.28921875 72.84765625 11.62921875 72.84765625 10.94921875 72.84765625 C10.94921875 73.50765625 10.94921875 74.16765625 10.94921875 74.84765625 C5.51951991 77.55770968 1.37698451 78.27266935 -4.64819336 78.18823242 C-5.47826904 78.1886705 -6.30834473 78.18910858 -7.16357422 78.18955994 C-9.88533715 78.1874833 -12.60647075 78.16420591 -15.328125 78.140625 C-17.22383793 78.13502504 -19.11955522 78.13075683 -21.01527405 78.12776184 C-25.98837411 78.11634461 -30.96120851 78.0869044 -35.9342041 78.0536499 C-41.01534431 78.02288158 -46.09652772 78.00924208 -51.17773438 77.99414062 C-61.13553296 77.96203163 -71.09313495 77.91087318 -81.05078125 77.84765625 C-81.24423158 73.82801837 -81.42275325 69.80801253 -81.58789062 65.78710938 C-81.6460346 64.42137193 -81.70814683 63.05579709 -81.77441406 61.69042969 C-81.86934546 59.71988405 -81.94849357 57.74859836 -82.02734375 55.77734375 C-82.07971191 54.59382324 -82.13208008 53.41030273 -82.18603516 52.19091797 C-82.0438246 48.67569898 -81.42423522 46.07774008 -80.05078125 42.84765625 C-77.87451172 41.1159668 -77.87451172 41.1159668 -75.16796875 39.734375 C-74.1732959 39.21319092 -73.17862305 38.69200684 -72.15380859 38.1550293 C-71.08855957 37.62047119 -70.02331055 37.08591309 -68.92578125 36.53515625 C-66.72734478 35.39032054 -64.52942868 34.24448503 -62.33203125 33.09765625 C-60.71748047 32.26621094 -60.71748047 32.26621094 -59.0703125 31.41796875 C-55.13975601 29.37387599 -51.27548648 27.22677429 -47.42578125 25.03515625 C-46.48158325 24.50124268 -46.48158325 24.50124268 -45.51831055 23.95654297 C-41.24952026 21.53978193 -36.99452147 19.0989233 -32.73828125 16.66015625 C-27.80803479 13.8380921 -22.86016906 11.05907819 -17.85546875 8.37109375 C-15.76348818 7.23478118 -13.68780426 6.06836872 -11.62109375 4.88671875 C-10.45182353 4.22786349 -9.28255271 3.56900931 -8.11328125 2.91015625 C-7.05238281 2.30300781 -5.99148437 1.69585937 -4.8984375 1.0703125 C-2.05078125 -0.15234375 -2.05078125 -0.15234375 0 0 Z " fill="#1C6EAB" transform="translate(205.05078125,202.15234375)"/>
<path d="M0 0 C3.0625 0.25 3.0625 0.25 6.0625 2.25 C6.40168476 5.08588587 6.54460099 7.70868721 6.56176758 10.55175781 C6.57826859 11.41047989 6.59476959 12.26920197 6.61177063 13.15394592 C6.66080972 16.00372391 6.68602459 18.85300959 6.70703125 21.703125 C6.71676153 22.6757 6.72649181 23.64827499 6.73651695 24.65032196 C6.78739475 29.79895633 6.82013362 34.94734095 6.83813477 40.09619141 C6.86015905 45.41480195 6.94257049 50.73065612 7.03925037 56.04835892 C7.10268361 60.13711424 7.12143407 64.22520949 7.128088 68.31441498 C7.13900927 70.27454776 7.1666885 72.23466204 7.21149635 74.19431305 C7.53780496 89.50171023 7.53780496 89.50171023 3.90805054 93.80310059 C-0.92997446 96.85033739 -5.28539935 97.98723052 -10.9375 97.25 C-11.2675 96.59 -11.5975 95.93 -11.9375 95.25 C-12.9275 95.745 -12.9275 95.745 -13.9375 96.25 C-14.5975 93.94 -15.2575 91.63 -15.9375 89.25 C-16.9275 89.745 -16.9275 89.745 -17.9375 90.25 C-18.5975 89.59 -19.2575 88.93 -19.9375 88.25 C-19.2775 87.26 -18.6175 86.27 -17.9375 85.25 C-17.2775 85.25 -16.6175 85.25 -15.9375 85.25 C-15.6075 83.93 -15.2775 82.61 -14.9375 81.25 C-14.2775 81.25 -13.6175 81.25 -12.9375 81.25 C-12.94273682 80.53457031 -12.94797363 79.81914062 -12.95336914 79.08203125 C-12.97430296 75.80469662 -12.98721202 72.52737613 -13 69.25 C-13.00837891 68.12464844 -13.01675781 66.99929688 -13.02539062 65.83984375 C-13.02861328 64.73769531 -13.03183594 63.63554687 -13.03515625 62.5 C-13.04039307 61.49453125 -13.04562988 60.4890625 -13.05102539 59.453125 C-12.94202414 56.37764874 -12.56159601 53.40204989 -12.1544342 50.35464478 C-11.78058015 46.72760039 -11.89548628 43.12089363 -11.98046875 39.48046875 C-12.00282654 37.833996 -12.02428518 36.18751084 -12.04492188 34.54101562 C-12.08219169 31.97532202 -12.12562313 29.41026939 -12.18432617 26.8449707 C-12.23864643 24.34837359 -12.26783845 21.85250719 -12.29296875 19.35546875 C-12.31675095 18.58671921 -12.34053314 17.81796967 -12.36503601 17.02592468 C-12.37573242 14.86010742 -12.37573242 14.86010742 -11.9375 11.25 C-9.9152832 9.2434082 -9.9152832 9.2434082 -7.9375 8.25 C-8.2675 7.26 -8.5975 6.27 -8.9375 5.25 C-7.9475 4.92 -6.9575 4.59 -5.9375 4.25 C-5.6075 3.59 -5.2775 2.93 -4.9375 2.25 C-2.9375 0.25 -2.9375 0.25 0 0 Z " fill="#196BA8" transform="translate(278.9375,243.75)"/>
<path d="M0 0 C26.73 0 53.46 0 81 0 C80 6 80 6 78 9 C77.34 9 76.68 9 76 9 C75.67 9.99 75.34 10.98 75 12 C68.41244444 17.50153099 60.5688616 16.50858413 52.44140625 16.390625 C50.92684174 16.38315538 49.41226749 16.37746586 47.89768982 16.37347412 C43.93056081 16.35827422 39.96402686 16.31904249 35.99713135 16.2746582 C31.9415288 16.23358263 27.88582917 16.21543702 23.83007812 16.1953125 C15.88641657 16.15254139 7.9433511 16.08223913 0 16 C0 10.72 0 5.44 0 0 Z " fill="#1468A7" transform="translate(124,290)"/>
<path d="M0 0 C26.73 0 53.46 0 81 0 C80 6 80 6 78 9 C77.34 9 76.68 9 76 9 C75.67 9.99 75.34 10.98 75 12 C74.34 12 73.68 12 73 12 C73 11.34 73 10.68 73 10 C72.01 9.505 72.01 9.505 71 9 C71.99 8.67 72.98 8.34 74 8 C75.10836423 6.11683841 75.10836423 6.11683841 76 4 C76.66 3.01 77.32 2.02 78 1 C52.59 1 27.18 1 1 1 C1 5.95 1 10.9 1 16 C0.67 16 0.34 16 0 16 C0 10.72 0 5.44 0 0 Z " fill="#417DA8" transform="translate(124,290)"/>
<path d="M0 0 C0.79792969 0.00386719 1.59585938 0.00773437 2.41796875 0.01171875 C3.21589844 0.00785156 4.01382813 0.00398438 4.8359375 0 C10.79136108 0.01011108 10.79136108 0.01011108 11.91796875 1.13671875 C11.99023377 2.98959377 12.00178095 4.84505753 11.98046875 6.69921875 C11.97144531 7.71113281 11.96242187 8.72304688 11.953125 9.765625 C11.94152344 10.54808594 11.92992187 11.33054687 11.91796875 12.13671875 C11.58796875 12.13671875 11.25796875 12.13671875 10.91796875 12.13671875 C10.91796875 8.83671875 10.91796875 5.53671875 10.91796875 2.13671875 C5.63796875 2.13671875 0.35796875 2.13671875 -5.08203125 2.13671875 C-5.41203125 8.40671875 -5.74203125 14.67671875 -6.08203125 21.13671875 C-5.09203125 20.80671875 -4.10203125 20.47671875 -3.08203125 20.13671875 C-2.75203125 21.45671875 -2.42203125 22.77671875 -2.08203125 24.13671875 C-4.55703125 23.14671875 -4.55703125 23.14671875 -7.08203125 22.13671875 C-7.11090939 18.65756934 -7.12878812 15.17845044 -7.14453125 11.69921875 C-7.15291016 10.70599609 -7.16128906 9.71277344 -7.16992188 8.68945312 C-7.17314453 7.74521484 -7.17636719 6.80097656 -7.1796875 5.828125 C-7.18492432 4.95357666 -7.19016113 4.07902832 -7.19555664 3.17797852 C-6.95006788 -1.23606779 -3.66896999 0.00622915 0 0 Z " fill="#6E9DBF" transform="translate(131.08203125,312.86328125)"/>
<path d="M0 0 C2.56638947 1.24248233 5.1279307 2.49360567 7.6875 3.75 C8.40873047 4.09804688 9.12996094 4.44609375 9.87304688 4.8046875 C13.98881156 6.83437967 17.51990691 8.95234451 21 12 C16.02693484 11.50269348 12.36200187 10.44697666 8 8 C7.34 8.66 6.68 9.32 6 10 C5.01 9.34 4.02 8.68 3 8 C2.34 8 1.68 8 1 8 C-1.125 3.375 -1.125 3.375 0 0 Z " fill="#317AB2" transform="translate(175,342)"/>
<path d="M0 0 C1.258125 0.12375 2.51625 0.2475 3.8125 0.375 C4.87404297 0.47941406 4.87404297 0.47941406 5.95703125 0.5859375 C8 1 8 1 11 3 C11 3.66 11 4.32 11 5 C13.97 5.495 13.97 5.495 17 6 C17 6.66 17 7.32 17 8 C17.763125 8.0825 18.52625 8.165 19.3125 8.25 C22.52373261 9.14615794 23.29374499 10.21611025 25 13 C24.01 13.495 24.01 13.495 23 14 C20.76928711 13.04370117 20.76928711 13.04370117 18.02734375 11.54296875 C17.04572266 11.00736328 16.06410156 10.47175781 15.05273438 9.91992188 C14.02470703 9.34822266 12.99667969 8.77652344 11.9375 8.1875 C10.90560547 7.62740234 9.87371094 7.06730469 8.81054688 6.49023438 C1.13252551 2.26505102 1.13252551 2.26505102 0 0 Z " fill="#5D97BE" transform="translate(133,339)"/>
<path d="M0 0 C6.68412752 3.63566563 13.35556707 7.29224236 20 11 C20 11.33 20 11.66 20 12 C16.14354879 12.22036864 13.50776784 11.60355101 10 10 C10 9.34 10 8.68 10 8 C8.68 8 7.36 8 6 8 C5.67 7.01 5.34 6.02 5 5 C3.35 4.67 1.7 4.34 0 4 C0 2.68 0 1.36 0 0 Z " fill="#4484B1" transform="translate(236,219)"/>
<path d="M0 0 C0.99 0.33 1.98 0.66 3 1 C4.22393475 3.95784231 3.96516243 5.99727245 3 9 C-1.43090471 7.79157144 -3.98112756 6.48331435 -7 3 C-3.535 2.505 -3.535 2.505 0 2 C0 1.34 0 0.68 0 0 Z " fill="#2270AE" transform="translate(173,354)"/>
<path d="M0 0 C1 3 1 3 -0.4375 6.1875 C-1.2109375 7.5796875 -1.2109375 7.5796875 -2 9 C-2.66 9 -3.32 9 -4 9 C-4.33 9.99 -4.66 10.98 -5 12 C-5.66 12 -6.32 12 -7 12 C-7 11.34 -7 10.68 -7 10 C-7.66 9.67 -8.32 9.34 -9 9 C-8.01 8.67 -7.02 8.34 -6 8 C-5.31513275 6.67592331 -4.65129797 5.34090759 -4 4 C-2.70529025 2.62913085 -1.37849103 1.28659163 0 0 Z " fill="#4888B4" transform="translate(204,290)"/>
<path d="M0 0 C0.69609375 0.35964844 1.3921875 0.71929687 2.109375 1.08984375 C2.81578125 1.45207031 3.5221875 1.81429687 4.25 2.1875 C4.78109375 2.46464844 5.3121875 2.74179688 5.859375 3.02734375 C4.869375 3.68734375 3.879375 4.34734375 2.859375 5.02734375 C2.859375 4.36734375 2.859375 3.70734375 2.859375 3.02734375 C-2.74625542 2.20111704 -7.56351852 1.95938719 -13.140625 3.02734375 C-8.81258487 -1.73350039 -5.8578632 -2.66169332 0 0 Z " fill="#639CBF" transform="translate(209.140625,203.97265625)"/>
<path d="M0 0 C3.37907088 -0.28528741 6.63149663 -0.44949482 10 0 C12.1875 2.375 12.1875 2.375 13 5 C12.67 5.66 12.34 6.32 12 7 C8.04 5.02 4.08 3.04 0 1 C0 0.67 0 0.34 0 0 Z " fill="#4784B4" transform="translate(176,363)"/>
<path d="M0 0 C1.32 0.33 2.64 0.66 4 1 C-1.85804117 4.37910649 -7.77142448 7.3642671 -14 10 C-13.67 8.68 -13.34 7.36 -13 6 C-11.02 6 -9.04 6 -7 6 C-7 5.34 -7 4.68 -7 4 C-6.34 4 -5.68 4 -5 4 C-5 3.34 -5 2.68 -5 2 C-3.35 2 -1.7 2 0 2 C0 1.34 0 0.68 0 0 Z " fill="#6093BB" transform="translate(225,365)"/>
<path d="M0 0 C1.98 0 3.96 0 6 0 C6.33 0.66 6.66 1.32 7 2 C8.98 2 10.96 2 13 2 C13 5 13 5 12 7 C7.69235185 5.43358249 3.93828536 3.31663844 0 1 C0 0.67 0 0.34 0 0 Z " fill="#4C8BB8" transform="translate(238,240)"/>
<path d="M0 0 C0.33 0.66 0.66 1.32 1 2 C2.175625 2.185625 2.175625 2.185625 3.375 2.375 C6 3 6 3 7.8125 5.0625 C8.204375 5.701875 8.59625 6.34125 9 7 C8.01 7.495 8.01 7.495 7 8 C4.8359375 7.00390625 4.8359375 7.00390625 2.375 5.5625 C1.55773437 5.08941406 0.74046875 4.61632812 -0.1015625 4.12890625 C-0.72804687 3.75636719 -1.35453125 3.38382812 -2 3 C-2 2.34 -2 1.68 -2 1 C-1.34 0.67 -0.68 0.34 0 0 Z " fill="#4783B1" transform="translate(149,345)"/>
<path d="M0 0 C4.62 2.31 9.24 4.62 14 7 C14 7.33 14 7.66 14 8 C7.375 7.25 7.375 7.25 4 5 C4 4.34 4 3.68 4 3 C2.68 2.67 1.36 2.34 0 2 C0 1.34 0 0.68 0 0 Z " fill="#5D95B9" transform="translate(160,334)"/>
<path d="M0 0 C0.66 0.33 1.32 0.66 2 1 C0.52307692 6.66153846 0.52307692 6.66153846 -2.125 8.375 C-2.74375 8.58125 -3.3625 8.7875 -4 9 C-4 9.66 -4 10.32 -4 11 C-4.99 11.33 -5.98 11.66 -7 12 C-7 11.34 -7 10.68 -7 10 C-6.34 10 -5.68 10 -5 10 C-5 8.68 -5 7.36 -5 6 C-4.01 6 -3.02 6 -2 6 C-1.855625 5.38125 -1.71125 4.7625 -1.5625 4.125 C-1 2 -1 2 0 0 Z " fill="#5E98BA" transform="translate(220,266)"/>
<path d="M0 0 C0 0.66 0 1.32 0 2 C-0.66 2 -1.32 2 -2 2 C-1.67 3.65 -1.34 5.3 -1 7 C-3.3431213 6.74438677 -5.67843403 6.40729228 -8 6 C-8.33 5.34 -8.66 4.68 -9 4 C-2.25 0 -2.25 0 0 0 Z " fill="#3B80B3" transform="translate(136,240)"/>
<path d="M0 0 C0.66 0.33 1.32 0.66 2 1 C0.35 1.66 -1.3 2.32 -3 3 C-3 3.66 -3 4.32 -3 5 C-4.45381897 5.69699552 -5.91322953 6.38233866 -7.375 7.0625 C-8.18710938 7.44535156 -8.99921875 7.82820313 -9.8359375 8.22265625 C-10.55007812 8.47917969 -11.26421875 8.73570312 -12 9 C-12.66 8.67 -13.32 8.34 -14 8 C-11.7136988 6.63597957 -9.42178251 5.28365726 -7.125 3.9375 C-6.47402344 3.54755859 -5.82304687 3.15761719 -5.15234375 2.75585938 C-3.46934275 1.77555467 -1.73703801 0.88101568 0 0 Z " fill="#699FC2" transform="translate(244,336)"/>
<path d="M0 0 C1.32 0.33 2.64 0.66 4 1 C4 1.66 4 2.32 4 3 C4.763125 2.896875 5.52625 2.79375 6.3125 2.6875 C7.199375 2.790625 8.08625 2.89375 9 3 C10.8125 5.5 10.8125 5.5 12 8 C7.69235185 6.43358249 3.93828536 4.31663844 0 2 C0 1.34 0 0.68 0 0 Z " fill="#6198BD" transform="translate(225,232)"/>
<path d="M0 0 C0.66 0.33 1.32 0.66 2 1 C0.7260411 3.03833424 -0.61061923 5.03852126 -2 7 C-2.66 7 -3.32 7 -4 7 C-4.33 6.34 -4.66 5.68 -5 5 C-5.66 4.67 -6.32 4.34 -7 4 C-1.7265625 0.77734375 -1.7265625 0.77734375 0 0 Z " fill="#508BBA" transform="translate(183,213)"/>
<path d="M0 0 C0.99 0 1.98 0 3 0 C3 0.66 3 1.32 3 2 C-2.17578125 5.22265625 -2.17578125 5.22265625 -4 6 C-4.99 5.67 -5.98 5.34 -7 5 C-6.67 4.01 -6.34 3.02 -6 2 C-4.7934375 1.7834375 -4.7934375 1.7834375 -3.5625 1.5625 C-1.07896294 1.25864751 -1.07896294 1.25864751 0 0 Z " fill="#4A8AB6" transform="translate(279,335)"/>
<path d="M0 0 C4.05281712 1.22527029 7.44360764 2.69880494 11 5 C8.39417629 5.93065133 7.35801776 6.14917407 4.75 5.0625 C3.88375 4.5365625 3.88375 4.5365625 3 4 C3 3.34 3 2.68 3 2 C2.01 2 1.02 2 0 2 C0 1.34 0 0.68 0 0 Z " fill="#6E9FC2" transform="translate(143,325)"/>
<path d="M0 0 C3.63 1.98 7.26 3.96 11 6 C9 7 9 7 6.8359375 6.44140625 C6.02382812 6.15136719 5.21171875 5.86132812 4.375 5.5625 C3.55773437 5.27503906 2.74046875 4.98757812 1.8984375 4.69140625 C1.27195313 4.46324219 0.64546875 4.23507813 0 4 C0 2.68 0 1.36 0 0 Z " fill="#6DA5C6" transform="translate(236,219)"/>
<path d="M0 0 C0 0.66 0 1.32 0 2 C-3.11771927 3.60339848 -4.39011689 4.18974141 -7.8125 3.125 C-8.534375 2.75375 -9.25625 2.3825 -10 2 C-6.5980513 -0.09350689 -3.94727588 -0.17942163 0 0 Z " fill="#5087AF" transform="translate(209,375)"/>
<path d="M0 0 C5.37305699 0.2642487 5.37305699 0.2642487 8 1 C10 3.5625 10 3.5625 11 6 C6.49197399 4.74194623 3.5087188 3.09592835 0 0 Z " fill="#6D9BBF" transform="translate(208,224)"/>
<path d="M0 0 C2.97 0.33 5.94 0.66 9 1 C7.35 2.32 5.7 3.64 4 5 C2.68 4.34 1.36 3.68 0 3 C0 2.01 0 1.02 0 0 Z " fill="#4287B7" transform="translate(157,242)"/>
<path d="M0 0 C0.99 0 1.98 0 3 0 C3.66 1.65 4.32 3.3 5 5 C3.68 5.33 2.36 5.66 1 6 C0.34 4.35 -0.32 2.7 -1 1 C-0.67 0.67 -0.34 0.34 0 0 Z " fill="#1265A7" transform="translate(187,362)"/>
<path d="M0 0 C4.40114397 0.50298788 6.71195019 2.08772731 10 5 C3.375 4.25 3.375 4.25 0 2 C0 1.34 0 0.68 0 0 Z " fill="#5D92B8" transform="translate(186,349)"/>
<path d="M0 0 C-0.33 1.32 -0.66 2.64 -1 4 C-3.02045442 3.39816251 -5.02111039 2.72693904 -7 2 C-7.33 1.34 -7.66 0.68 -8 0 C-2.25 -1.125 -2.25 -1.125 0 0 Z " fill="#4E8DB9" transform="translate(177,359)"/>
<path d="M0 0 C0.66 0.33 1.32 0.66 2 1 C1.67 1.99 1.34 2.98 1 4 C-1.64 4.33 -4.28 4.66 -7 5 C-5.47058649 1.94117299 -3.05780454 1.31048766 0 0 Z " fill="#5F99BF" transform="translate(211,354)"/>
<path d="M0 0 C-1.98 0.99 -3.96 1.98 -6 3 C-6.66 1.68 -7.32 0.36 -8 -1 C-4.59745511 -2.2151946 -3.06748874 -1.86240388 0 0 Z " fill="#3B83BC" transform="translate(200,356)"/>
<path d="M0 0 C3.45925163 1.2491742 6.14693203 2.67527795 9 5 C5.625 4.75 5.625 4.75 2 4 C0.5625 1.9375 0.5625 1.9375 0 0 Z " fill="#6295BE" transform="translate(215,208)"/>
<path d="M0 0 C2.97 0.495 2.97 0.495 6 1 C6 1.66 6 2.32 6 3 C4.35 3.66 2.7 4.32 1 5 C0.67 3.35 0.34 1.7 0 0 Z " fill="#3377AA" transform="translate(239,354)"/>
<path d="M0 0 C-3.96 1.98 -3.96 1.98 -8 4 C-8 2.68 -8 1.36 -8 0 C-2.25 -1.125 -2.25 -1.125 0 0 Z " fill="#699DC5" transform="translate(267,345)"/>
<path d="M0 0 C-1.65 1.32 -3.3 2.64 -5 4 C-5.66 3.67 -6.32 3.34 -7 3 C-6.67 2.01 -6.34 1.02 -6 0 C-3 -1 -3 -1 0 0 Z " fill="#548CB9" transform="translate(151,251)"/>
<path d="M0 0 C3.26954202 0.56371414 4.82575883 1.49962266 7 4 C6.01 4.495 6.01 4.495 5 5 C4.01 4.67 3.02 4.34 2 4 C2 3.34 2 2.68 2 2 C1.34 2 0.68 2 0 2 C0 1.34 0 0.68 0 0 Z " fill="#5793B9" transform="translate(256,231)"/>
<path d="M0 0 C1.65 0 3.3 0 5 0 C5 1.32 5 2.64 5 4 C3.0625 3.6875 3.0625 3.6875 1 3 C0.67 2.01 0.34 1.02 0 0 Z " fill="#3A81AE" transform="translate(218,228)"/>
<path d="" fill="#FFFFFF" transform="translate(0,0)"/>
<path d="" fill="#FFFFFF" transform="translate(0,0)"/>
<path d="" fill="#000000" transform="translate(0,0)"/>
<path d="" fill="#FFFFFF" transform="translate(0,0)"/>
<path d="" fill="#FFFFFF" transform="translate(0,0)"/>
<path d="" fill="#FFFFFF" transform="translate(0,0)"/>
<path d="" fill="#FFFFFF" transform="translate(0,0)"/>
<path d="" fill="#FFFFFF" transform="translate(0,0)"/>
<path d="" fill="#FFFFFF" transform="translate(0,0)"/>
<path d="" fill="#FFFFFF" transform="translate(0,0)"/>
<path d="" fill="#FFFFFF" transform="translate(0,0)"/>
<path d="" fill="#FFFFFF" transform="translate(0,0)"/>
<path d="" fill="#FFFFFF" transform="translate(0,0)"/>
<path d="" fill="#FFFFFF" transform="translate(0,0)"/>
<path d="" fill="#FFFFFF" transform="translate(0,0)"/>
<path d="" fill="#FFFFFF" transform="translate(0,0)"/>
<path d="" fill="#FFFFFF" transform="translate(0,0)"/>
<path d="" fill="#FFFFFF" transform="translate(0,0)"/>
<path d="" fill="#FFFFFF" transform="translate(0,0)"/>
<path d="" fill="#000000" transform="translate(0,0)"/>
<path d="" fill="#FFFFFF" transform="translate(0,0)"/>
<path d="" fill="#FFFFFF" transform="translate(0,0)"/>
<path d="" fill="#FFFFFF" transform="translate(0,0)"/>
<path d="" fill="#FFFFFF" transform="translate(0,0)"/>
<path d="" fill="#FFFFFF" transform="translate(0,0)"/>
<path d="" fill="#FFFFFF" transform="translate(0,0)"/>
<path d="" fill="#FFFFFF" transform="translate(0,0)"/>
<path d="" fill="#FFFFFF" transform="translate(0,0)"/>
<path d="" fill="#FFFFFF" transform="translate(0,0)"/>
<path d="" fill="#FFFFFF" transform="translate(0,0)"/>
<path d="" fill="#FFFFFF" transform="translate(0,0)"/>
<path d="" fill="#FFFFFF" transform="translate(0,0)"/>
<path d="" fill="#FFFFFF" transform="translate(0,0)"/>
<path d="" fill="#FFFFFF" transform="translate(0,0)"/>
<path d="" fill="#FFFFFF" transform="translate(0,0)"/>
<path d="" fill="#FFFFFF" transform="translate(0,0)"/>
<path d="" fill="#FFFFFF" transform="translate(0,0)"/>
<path d="" fill="#FFFFFF" transform="translate(0,0)"/>
<path d="" fill="#FFFFFF" transform="translate(0,0)"/>
<path d="" fill="#FFFFFF" transform="translate(0,0)"/>
<path d="" fill="#FFFFFF" transform="translate(0,0)"/>
<path d="" fill="#FFFFFF" transform="translate(0,0)"/>
<path d="" fill="#FFFFFF" transform="translate(0,0)"/>
<path d="" fill="#FFFFFF" transform="translate(0,0)"/>
<path d="" fill="#FFFFFF" transform="translate(0,0)"/>
<path d="" fill="#FFFFFF" transform="translate(0,0)"/>
<path d="" fill="#FFFFFF" transform="translate(0,0)"/>
<path d="" fill="#FFFFFF" transform="translate(0,0)"/>
<path d="" fill="#FFFFFF" transform="translate(0,0)"/>
<path d="" fill="#FFFFFF" transform="translate(0,0)"/>
<path d="" fill="#FFFFFF" transform="translate(0,0)"/>
<path d="" fill="#FFFFFF" transform="translate(0,0)"/>
<path d="" fill="#FFFFFF" transform="translate(0,0)"/>
<path d="" fill="#FFFFFF" transform="translate(0,0)"/>
<path d="" fill="#FFFFFF" transform="translate(0,0)"/>
<path d="" fill="#FFFFFF" transform="translate(0,0)"/>
<path d="" fill="#FFFFFF" transform="translate(0,0)"/>
<path d="" fill="#FFFFFF" transform="translate(0,0)"/>
<path d="" fill="#FFFFFF" transform="translate(0,0)"/>
<path d="" fill="#FFFFFF" transform="translate(0,0)"/>
<path d="" fill="#FFFFFF" transform="translate(0,0)"/>
<path d="" fill="#FFFFFF" transform="translate(0,0)"/>
<path d="" fill="#FFFFFF" transform="translate(0,0)"/>
<path d="" fill="#FFFFFF" transform="translate(0,0)"/>
<path d="" fill="#FFFFFF" transform="translate(0,0)"/>
<path d="" fill="#FFFFFF" transform="translate(0,0)"/>
<path d="" fill="#FFFFFF" transform="translate(0,0)"/>
<path d="" fill="#FFFFFF" transform="translate(0,0)"/>
<path d="" fill="#FFFFFF" transform="translate(0,0)"/>
<path d="" fill="#FFFFFF" transform="translate(0,0)"/>
<path d="" fill="#FFFFFF" transform="translate(0,0)"/>
<path d="" fill="#FFFFFF" transform="translate(0,0)"/>
<path d="" fill="#FFFFFF" transform="translate(0,0)"/>
<path d="" fill="#FFFFFF" transform="translate(0,0)"/>
<path d="" fill="#FFFFFF" transform="translate(0,0)"/>
<path d="" fill="#FFFFFF" transform="translate(0,0)"/>
<path d="" fill="#FFFFFF" transform="translate(0,0)"/>
<path d="" fill="#FFFFFF" transform="translate(0,0)"/>
<path d="" fill="#FFFFFF" transform="translate(0,0)"/>
<path d="" fill="#FFFFFF" transform="translate(0,0)"/>
</svg>
