<?xml version="1.0" encoding="UTF-8"?>
<svg version="1.1" xmlns="http://www.w3.org/2000/svg" width="500" height="500">
<path d="M0 0 C0.72960937 0.43183594 1.45921875 0.86367187 2.2109375 1.30859375 C5.00340029 2.95957614 7.39726417 4.10403057 10.5859375 4.74609375 C10.5859375 5.40609375 10.5859375 6.06609375 10.5859375 6.74609375 C11.40835938 6.98972656 12.23078125 7.23335937 13.078125 7.484375 C17.18233353 8.96061036 20.87966609 10.86587539 24.7109375 12.93359375 C25.45722412 13.33215576 26.20351074 13.73071777 26.97241211 14.14135742 C32.31921724 17.01484176 37.57608309 20.01059444 42.77734375 23.140625 C45.08096909 24.45744004 47.38694114 25.66697529 49.76147461 26.84643555 C50.47863144 27.2031987 51.19578827 27.55996185 51.93467712 27.92753601 C52.47959305 28.19766006 53.02450897 28.46778412 53.5859375 28.74609375 C53.73086005 35.55553157 53.87293816 42.36502481 54.01318359 49.17456055 C54.06105543 51.48349298 54.10954119 53.79241278 54.15869141 56.10131836 C54.62854443 78.20838238 54.62854443 78.20838238 54.6796875 88.4375 C54.68677734 89.69892822 54.69386719 90.96035645 54.70117188 92.26000977 C54.58240531 95.85294999 54.3141834 99.2234852 53.5859375 102.74609375 C50.98828125 104.86328125 50.98828125 104.86328125 47.5234375 106.62109375 C46.24062143 107.29507069 44.95807977 107.96957014 43.67578125 108.64453125 C43.00401855 108.98709961 42.33225586 109.32966797 41.64013672 109.68261719 C38.23672249 111.44459394 34.91742007 113.35269913 31.5859375 115.24609375 C30.23207972 116.00706023 28.87791424 116.76747953 27.5234375 117.52734375 C23.86790941 119.5835783 20.22545346 121.6616437 16.5859375 123.74609375 C14.90177734 124.70322266 14.90177734 124.70322266 13.18359375 125.6796875 C10.54761222 127.18311864 7.93755024 128.72567255 5.33203125 130.28125 C3.8959089 131.12382673 2.45971236 131.96627702 1.0234375 132.80859375 C0.35634766 133.21529297 -0.31074219 133.62199219 -0.99804688 134.04101562 C-3.80899968 135.67382748 -5.81602627 136.76689501 -9.109375 136.65234375 C-11.53200276 135.69971724 -13.54541262 134.60540904 -15.7265625 133.18359375 C-20.05544249 130.49006842 -24.46525253 128.16943326 -29.0390625 125.93359375 C-36.63757803 122.19938409 -44.00121163 118.12601148 -51.34814453 113.92236328 C-53.53996907 112.67440646 -55.73950019 111.4410132 -57.94140625 110.2109375 C-58.67939453 109.79835693 -59.41738281 109.38577637 -60.17773438 108.96069336 C-61.6017237 108.16505692 -63.02618577 107.37026584 -64.45117188 106.57641602 C-69.30244233 103.85771392 -69.30244233 103.85771392 -70.4140625 102.74609375 C-70.51393225 99.90274327 -70.55284131 97.08912212 -70.5390625 94.24609375 C-70.54292969 93.44816406 -70.54679687 92.65023437 -70.55078125 91.828125 C-70.54067017 85.87270142 -70.54067017 85.87270142 -69.4140625 84.74609375 C-67.22766797 84.67350429 -65.03905861 84.66235592 -62.8515625 84.68359375 C-61.05525391 84.69712891 -61.05525391 84.69712891 -59.22265625 84.7109375 C-57.83240234 84.72833984 -57.83240234 84.72833984 -56.4140625 84.74609375 C-54.47248233 88.2623413 -54.23095182 90.71765885 -54.4140625 94.74609375 C-53.72183594 94.84277344 -53.02960938 94.93945312 -52.31640625 95.0390625 C-48.81952564 95.89092709 -46.13530614 97.32684213 -42.9765625 99.05859375 C-42.03538574 99.57123779 -42.03538574 99.57123779 -41.07519531 100.09423828 C-39.66011026 100.86588814 -38.24663401 101.640493 -36.83447266 102.41748047 C-34.10975397 103.91313501 -31.37756146 105.39458992 -28.64453125 106.875 C-26.65086669 107.95670882 -24.65737637 109.03873883 -22.6640625 110.12109375 C-21.69927979 110.64485596 -20.73449707 111.16861816 -19.74047852 111.70825195 C-18.83354248 112.20284912 -17.92660645 112.69744629 -16.9921875 113.20703125 C-15.77644043 113.86904541 -15.77644043 113.86904541 -14.53613281 114.54443359 C-12.7840773 115.53656627 -11.08936344 116.62922646 -9.4140625 117.74609375 C-5.29176483 117.43057679 -2.44919016 115.76921017 1.0234375 113.62109375 C5.5020735 110.92730162 10.01687751 108.4819939 14.7109375 106.18359375 C19.73897051 103.71397489 24.55898096 101.07989046 29.3046875 98.10546875 C31.9845095 96.50858852 34.79574433 95.14119034 37.5859375 93.74609375 C37.9159375 75.26609375 38.2459375 56.78609375 38.5859375 37.74609375 C36.6059375 37.08609375 34.6259375 36.42609375 32.5859375 35.74609375 C30.76672891 34.7533103 28.97545426 33.70811697 27.2109375 32.62109375 C21.75071484 29.35852592 16.17941976 26.46395839 10.46191406 23.6796875 C5.47687013 21.24116818 0.71556423 18.54013997 -3.984375 15.58203125 C-8.607783 13.99134104 -12.5056676 16.75810538 -16.671875 18.7421875 C-18.29685244 19.55082239 -19.91911962 20.36491974 -21.5390625 21.18359375 C-22.83239502 21.83207275 -22.83239502 21.83207275 -24.15185547 22.49365234 C-31.58641329 26.25463231 -38.88793419 30.24266949 -46.14111328 34.34155273 C-47.33196533 35.00973022 -47.33196533 35.00973022 -48.546875 35.69140625 C-49.59705811 36.28719482 -49.59705811 36.28719482 -50.66845703 36.89501953 C-52.4140625 37.74609375 -52.4140625 37.74609375 -54.4140625 37.74609375 C-54.4140625 40.38609375 -54.4140625 43.02609375 -54.4140625 45.74609375 C-34.6140625 45.74609375 -14.8140625 45.74609375 5.5859375 45.74609375 C4.49858318 51.18286535 3.58313776 52.22475067 -0.4140625 55.74609375 C-4.01880686 58.14925666 -5.62095841 57.98921984 -9.9050293 57.97314453 C-10.88592026 57.97358261 -10.88592026 57.97358261 -11.8866272 57.97402954 C-14.04564739 57.97263745 -16.20432143 57.95708232 -18.36328125 57.94140625 C-19.86114819 57.93767568 -21.35901757 57.93482892 -22.85688782 57.93283081 C-26.79756417 57.92519778 -30.73809288 57.9055522 -34.67871094 57.88342285 C-38.70050052 57.86295728 -42.72231397 57.85382757 -46.74414062 57.84375 C-54.63418985 57.82230591 -62.5240908 57.78712653 -70.4140625 57.74609375 C-70.4140625 48.17609375 -70.4140625 38.60609375 -70.4140625 28.74609375 C-66.9284375 26.93109375 -63.4428125 25.11609375 -59.8515625 23.24609375 C-52.94344185 19.64418669 -46.03784002 16.03821132 -39.1640625 12.37109375 C-38.56859619 12.05350098 -37.97312988 11.7359082 -37.35961914 11.40869141 C-33.81697796 9.51296702 -30.30083867 7.57319856 -26.7890625 5.62109375 C-22.75520738 3.43835003 -18.70494638 1.2954674 -14.6015625 -0.75390625 C-13.56386719 -1.27984375 -12.52617187 -1.80578125 -11.45703125 -2.34765625 C-6.847281 -3.72052154 -4.11499926 -2.13740253 0 0 Z " fill="#EEEEEE" transform="translate(142.4140625,183.25390625)"/>
<path d="M0 0 C2.9375 2.5625 2.9375 2.5625 5 5 C5.49242187 5.43699219 5.98484375 5.87398437 6.4921875 6.32421875 C10.29807103 10.55407376 11.72711362 17.05568458 12.5 22.5625 C11.41101225 30.04929078 8.51188184 36.73309069 3 42 C-4.92066089 47.1407464 -11.52167772 48.99406795 -21 48 C-29.12792819 45.54325334 -34.95439089 40.40595616 -39.09375 33.05859375 C-41.67155332 27.15112782 -42.12551074 20.75775358 -40.2734375 14.57421875 C-36.70496886 5.94316655 -31.46627409 0.80149337 -23 -3 C-14.8421459 -5.49311595 -7.40601377 -4.02077805 0 0 Z M-27.375 10.375 C-30.81090847 15.92531367 -31.74452026 20.51694667 -31 27 C-29.08396028 32.07750525 -26.52529162 35.59706021 -21.75 38.25 C-16.71587008 39.62294452 -12.63899178 39.61060478 -7.8125 37.8125 C-3.06925169 34.75573998 0.5711117 31.58565426 2 26 C2.62035723 19.69303478 1.71165459 15.21481688 -2 10 C-9.45962361 3.23429486 -20.21942006 3.21942006 -27.375 10.375 Z " fill="#DEDEDE" transform="translate(289,216)"/>
<path d="M0 0 C0.721875 0.00257813 1.44375 0.00515625 2.1875 0.0078125 C2.909375 0.00523437 3.63125 0.00265625 4.375 0 C6.1875 0.1328125 6.1875 0.1328125 7.1875 1.1328125 C7.32205698 3.35290807 7.39120505 5.57701572 7.43359375 7.80078125 C7.46655892 9.1829484 7.49977008 10.56510971 7.53320312 11.94726562 C7.58043055 14.1282916 7.62480051 16.30929857 7.66430664 18.49047852 C7.70430641 20.59417877 7.75580941 22.69736818 7.80859375 24.80078125 C7.8336499 26.06172607 7.85870605 27.3226709 7.88452148 28.62182617 C8.24822233 32.83647716 8.98684227 36.51574169 11.5390625 39.953125 C14.70320001 42.21750777 18.39215276 42.246206 22.1875 42.1328125 C25.09421583 40.95775716 26.55055916 40.07914873 28.29272461 37.49072266 C29.53408322 34.21949715 29.52459376 31.04699592 29.56640625 27.59375 C29.58340073 26.87168365 29.6003952 26.14961731 29.61790466 25.40567017 C29.67088895 23.10647234 29.71127447 20.8072912 29.75 18.5078125 C29.79394992 16.20128248 29.84064014 13.89489066 29.89280701 11.58853149 C29.9247275 10.1551861 29.9516291 8.72171843 29.97303772 7.28817749 C30.07576809 2.35627633 30.07576809 2.35627633 31.1875 0.1328125 C32.66656892 0.10592034 34.14577483 0.08646629 35.625 0.0703125 C36.44871094 0.05871094 37.27242188 0.04710937 38.12109375 0.03515625 C40.1875 0.1328125 40.1875 0.1328125 41.1875 1.1328125 C41.3009478 3.65631096 41.35168069 6.15137038 41.35546875 8.67578125 C41.36046135 9.81760612 41.36046135 9.81760612 41.36555481 10.98249817 C41.37062954 12.59908442 41.37296297 14.21568119 41.37280273 15.83227539 C41.37497558 18.29265997 41.39308704 20.7525863 41.41210938 23.21289062 C41.41504601 24.78385264 41.417029 26.35481678 41.41796875 27.92578125 C41.42515427 28.65725876 41.43233978 29.38873627 41.43974304 30.14237976 C41.42042349 34.5194437 40.79987801 38.06412416 39.1875 42.1328125 C38.5275 42.1328125 37.8675 42.1328125 37.1875 42.1328125 C37.0946875 42.9990625 37.0946875 42.9990625 37 43.8828125 C35.54839687 47.90263655 32.33615845 49.57249131 28.625 51.3828125 C20.45496998 53.1653645 12.67632922 52.9429186 5.1875 49.1328125 C1.00752039 45.69594038 -2.32446481 41.7136561 -3.07897949 36.17758179 C-3.17446309 33.94184696 -3.17626068 31.72575754 -3.140625 29.48828125 C-3.13875183 28.67788895 -3.13687866 27.86749664 -3.13494873 27.032547 C-3.12825795 25.33065639 -3.11440304 23.62878039 -3.09375 21.92700195 C-3.06239096 19.31121671 -3.0527552 16.69603335 -3.046875 14.08007812 C-3.03771247 12.42447175 -3.02733911 10.76887154 -3.015625 9.11328125 C-3.01137512 8.32793503 -3.00712524 7.54258881 -3.00274658 6.73344421 C-2.91590783 0.21366566 -2.91590783 0.21366566 0 0 Z " fill="#E5E5E5" transform="translate(352.8125,211.8671875)"/>
<path d="M0 0 C1.96589802 1.55596861 3.38526619 3.06231943 5 5 C3.19587357 8.26460973 2.16605307 9.88929795 -1 12 C-2.4540625 10.7934375 -2.4540625 10.7934375 -3.9375 9.5625 C-8.10582784 6.60677662 -11.90484005 5.65792212 -17 6 C-19.57273113 6.74499936 -21.59792258 7.75091974 -24 9 C-24.99 9.33 -25.98 9.66 -27 10 C-28.17082878 12.92914165 -28.17082878 12.92914165 -29 16 C-29.33 16.66 -29.66 17.32 -30 18 C-30.38360392 23.75405875 -29.91763095 26.89414584 -27 32 C-27 32.66 -27 33.32 -27 34 C-26.34 34 -25.68 34 -25 34 C-25 34.66 -25 35.32 -25 36 C-17.47264358 38.4579123 -11.52735642 38.4579123 -4 36 C-4 35.34 -4 34.68 -4 34 C-3.34 34 -2.68 34 -2 34 C-2 33.34 -2 32.68 -2 32 C-0.68 32 0.64 32 2 32 C4.25 34.5 4.25 34.5 6 37 C4.55767936 40.57478396 2.83879097 42.11081448 -0.375 44.1875 C-1.14585937 44.69667969 -1.91671875 45.20585937 -2.7109375 45.73046875 C-8.07725739 48.70667005 -14.00473517 48.60661681 -20 48 C-23.47985402 46.9417177 -26.7308509 45.58848026 -30 44 C-30 43.34 -30 42.68 -30 42 C-31.32 41.34 -32.64 40.68 -34 40 C-34 39.34 -34 38.68 -34 38 C-34.66 38 -35.32 38 -36 38 C-40.13749644 30.85173606 -41.22968008 24.17880239 -40 16 C-37.59648298 8.36316478 -34.17539761 3.02439198 -27.15625 -0.953125 C-17.6538105 -5.56662823 -9.26893169 -5.05431292 0 0 Z " fill="#DEDEDE" transform="translate(343,216)"/>
<path d="M0 0 C3.19952834 1.71568911 4.9849537 3.15907117 7.01171875 6.19921875 C7.40559663 8.52309822 7.7465796 10.85715624 8.01171875 13.19921875 C4.22983994 15.03613132 2.06603567 15.35759501 -1.98828125 14.19921875 C-2.31828125 12.54921875 -2.64828125 10.89921875 -2.98828125 9.19921875 C-4.96828125 9.19921875 -6.94828125 9.19921875 -8.98828125 9.19921875 C-9.93848541 11.43905375 -9.93848541 11.43905375 -9.98828125 14.19921875 C-7.27664423 17.81473477 -4.39511646 19.59973566 -0.42578125 21.69921875 C4.42371987 24.26517774 7.24396587 26.8959601 9.01171875 32.19921875 C9.56056981 36.92293685 9.47768603 40.30056757 7.26171875 44.57421875 C3.88321307 48.51580871 1.09248845 50.81617456 -4.1875 51.47265625 C-9.74573403 51.69952295 -13.7488966 51.14745936 -18.35546875 47.90234375 C-21.22693122 44.90722978 -22.4208817 41.26691415 -22.98828125 37.19921875 C-22.65828125 36.53921875 -22.32828125 35.87921875 -21.98828125 35.19921875 C-18.68828125 35.19921875 -15.38828125 35.19921875 -11.98828125 35.19921875 C-11.32828125 37.17921875 -10.66828125 39.15921875 -9.98828125 41.19921875 C-7.67828125 41.19921875 -5.36828125 41.19921875 -2.98828125 41.19921875 C-1.99705246 37.09826115 -1.99705246 37.09826115 -2.98828125 33.19921875 C-6.12993589 30.72154502 -9.22772887 28.95489359 -12.75390625 27.05859375 C-16.17652834 25.09099941 -19.14495288 23.16698495 -20.73828125 19.44921875 C-21.42680069 13.25254378 -21.78053867 8.41357271 -17.98828125 3.19921875 C-12.63038773 -0.76685415 -6.41426669 -2.58334906 0 0 Z " fill="#E2E2E2" transform="translate(418.98828125,212.80078125)"/>
<path d="M0 0 C0.68429077 -0.00095673 1.36858154 -0.00191345 2.0736084 -0.00289917 C3.52286877 -0.0035808 4.97213218 -0.00172773 6.42138672 0.00244141 C8.64687928 0.00778998 10.87217001 0.0024959 13.09765625 -0.00390625 C14.50260461 -0.00324547 15.90755285 -0.0019643 17.3125 0 C18.59962891 0.00112793 19.88675781 0.00225586 21.21289062 0.00341797 C24.15625 0.1328125 24.15625 0.1328125 25.15625 1.1328125 C25.2890625 2.9453125 25.2890625 2.9453125 25.28125 5.1328125 C25.28511719 6.215625 25.28511719 6.215625 25.2890625 7.3203125 C25.15625 9.1328125 25.15625 9.1328125 24.15625 10.1328125 C22.59676458 10.28967499 21.03082332 10.38357889 19.46484375 10.44921875 C18.52060547 10.49111328 17.57636719 10.53300781 16.60351562 10.57617188 C15.11368164 10.63514648 15.11368164 10.63514648 13.59375 10.6953125 C12.59666016 10.73849609 11.59957031 10.78167969 10.57226562 10.82617188 C8.10043889 10.93261417 5.6283634 11.03325009 3.15625 11.1328125 C2.82625 14.4328125 2.49625 17.7328125 2.15625 21.1328125 C8.09625 21.1328125 14.03625 21.1328125 20.15625 21.1328125 C20.15625 24.7628125 20.15625 28.3928125 20.15625 32.1328125 C14.21625 32.1328125 8.27625 32.1328125 2.15625 32.1328125 C2.15625 38.7328125 2.15625 45.3328125 2.15625 52.1328125 C-0.81375 52.1328125 -3.78375 52.1328125 -6.84375 52.1328125 C-8.47129644 50.50526606 -7.97112077 48.69142927 -7.97314453 46.4453125 C-7.97629669 45.44757813 -7.97944885 44.44984375 -7.98269653 43.421875 C-7.9806723 42.33648437 -7.97864807 41.25109375 -7.9765625 40.1328125 C-7.97751923 39.02679688 -7.97847595 37.92078125 -7.97946167 36.78125 C-7.98014367 34.43749942 -7.97828804 32.09374697 -7.97412109 29.75 C-7.96877314 26.14839462 -7.97406547 22.54691397 -7.98046875 18.9453125 C-7.97980797 16.67447889 -7.97852682 14.40364536 -7.9765625 12.1328125 C-7.97858673 11.04742187 -7.98061096 9.96203125 -7.98269653 8.84375 C-7.97954437 7.84601563 -7.97639221 6.84828125 -7.97314453 5.8203125 C-7.97234894 4.93730469 -7.97155334 4.05429688 -7.97073364 3.14453125 C-7.68429677 -1.39330063 -3.70167621 0.00324383 0 0 Z " fill="#DDDDDD" transform="translate(223.84375,211.8671875)"/>
<path d="M0 0 C1.09920273 0.00222061 2.19840546 0.00444122 3.33091736 0.00672913 C4.57212845 0.00680466 5.81333954 0.00688019 7.09216309 0.00695801 C8.45682311 0.01206541 9.82148274 0.01728142 11.18614197 0.02259827 C12.57476755 0.02446251 13.96339379 0.02588638 15.35202026 0.02688599 C19.01319686 0.03071065 22.67433402 0.04054048 26.335495 0.05158997 C30.06890835 0.06180519 33.80232805 0.06638384 37.53575134 0.07142639 C44.86584748 0.08216281 52.19591108 0.0992386 59.52598572 0.12025452 C58.76318501 5.05750308 56.99943907 7.48524519 53.52598572 11.12025452 C50.39425506 13.09322434 47.98535737 13.3689113 44.3143158 13.36317444 C43.27676651 13.36625107 42.23921722 13.3693277 41.17022705 13.37249756 C40.05657272 13.36531204 38.9429184 13.35812653 37.79551697 13.35072327 C36.6493541 13.35026505 35.50319122 13.34980682 34.32229614 13.34933472 C31.90230777 13.34631544 29.48232129 13.33843885 27.06236267 13.32606506 C23.34248538 13.30777418 19.62285647 13.30555564 15.90293884 13.30580139 C13.55462938 13.3008875 11.20632162 13.29505975 8.85801697 13.28822327 C7.73828995 13.28711044 6.61856293 13.28599762 5.46490479 13.28485107 C4.43681198 13.27847122 3.40871918 13.27209137 2.34947205 13.26551819 C1.43998306 13.26170639 0.53049408 13.25789459 -0.40655518 13.25396729 C-2.47401428 13.12025452 -2.47401428 13.12025452 -3.47401428 12.12025452 C-3.57252599 10.28909569 -3.60374057 8.45405518 -3.59901428 6.62025452 C-3.60159241 5.61994202 -3.60417053 4.61962952 -3.60682678 3.58900452 C-3.42774367 0.26016557 -3.3309578 0.16190801 0 0 Z " fill="#F1F1F1" transform="translate(75.47401428222656,248.87974548339844)"/>
<path d="M0 0 C0.66 0 1.32 0 2 0 C2 1.32 2 2.64 2 4 C2.66 4 3.32 4 4 4 C4.598125 4.763125 5.19625 5.52625 5.8125 6.3125 C8.02938148 9.03609725 10.00913442 10.25532841 13 12 C13 12.66 13 13.32 13 14 C11.9275 14.515625 10.855 15.03125 9.75 15.5625 C5.53003795 17.93355373 4.06854018 20.69743642 2 25 C-2.02627499 23.65790834 -2.75169153 21.51298199 -5 18 C-7.14857897 15.40380041 -8.67555856 14.57317956 -12 14 C-11.67 13.01 -11.34 12.02 -11 11 C-10.0925 10.608125 -9.185 10.21625 -8.25 9.8125 C-4.35063355 7.63785333 -3.15385191 5.48462603 -1.078125 1.64453125 C-0.72234375 1.10183594 -0.3665625 0.55914062 0 0 Z " fill="#747474" transform="translate(472,460)"/>
<path d="M0 0 C1.09920273 0.00222061 2.19840546 0.00444122 3.33091736 0.00672913 C4.57212845 0.00680466 5.81333954 0.00688019 7.09216309 0.00695801 C8.45682311 0.01206541 9.82148274 0.01728142 11.18614197 0.02259827 C12.57476755 0.02446251 13.96339379 0.02588638 15.35202026 0.02688599 C19.01319686 0.03071065 22.67433402 0.04054048 26.335495 0.05158997 C30.06890835 0.06180519 33.80232805 0.06638384 37.53575134 0.07142639 C44.86584748 0.08216281 52.19591108 0.0992386 59.52598572 0.12025452 C59.19598572 1.44025452 58.86598572 2.76025452 58.52598572 4.12025452 C58.52598572 3.13025452 58.52598572 2.14025452 58.52598572 1.12025452 C51.25893931 1.22770178 43.99199268 1.34032408 36.72513008 1.45959377 C33.35100204 1.5148092 29.97686532 1.56822695 26.60264587 1.61756897 C22.72544306 1.67515119 18.84838341 1.73888018 14.97129822 1.80384827 C13.75668915 1.82056076 12.54208008 1.83727325 11.29066467 1.85449219 C10.16965363 1.87443741 9.04864258 1.89438263 7.8936615 1.91493225 C6.90326874 1.93047653 5.91287598 1.94602081 4.89247131 1.96203613 C2.50770029 1.9683343 2.50770029 1.9683343 0.52598572 3.12025452 C-0.12956547 5.64758687 -0.12956547 5.64758687 -0.47401428 8.12025452 C-1.46401428 8.45025452 -2.45401428 8.78025452 -3.47401428 9.12025452 C-3.57167053 2.96791077 -3.57167053 2.96791077 -3.47401428 1.12025452 C-2.47401428 0.12025452 -2.47401428 0.12025452 0 0 Z " fill="#929292" transform="translate(75.47401428222656,248.87974548339844)"/>
<path d="M0 0 C1.79244141 0.01740234 1.79244141 0.01740234 3.62109375 0.03515625 C5.41740234 0.04869141 5.41740234 0.04869141 7.25 0.0625 C8.17683594 0.07410156 9.10367188 0.08570313 10.05859375 0.09765625 C12.00017392 3.6139038 12.24170443 6.06922135 12.05859375 10.09765625 C11.06859375 9.43765625 10.07859375 8.77765625 9.05859375 8.09765625 C9.05859375 6.44765625 9.05859375 4.79765625 9.05859375 3.09765625 C5.42859375 3.09765625 1.79859375 3.09765625 -1.94140625 3.09765625 C-2.27140625 8.04765625 -2.60140625 12.99765625 -2.94140625 18.09765625 C-3.27140625 18.09765625 -3.60140625 18.09765625 -3.94140625 18.09765625 C-3.96824937 15.28509344 -3.98816813 12.47278384 -4.00390625 9.66015625 C-4.01228516 8.85771484 -4.02066406 8.05527344 -4.02929688 7.22851562 C-4.03792055 5.18470404 -3.99368775 3.14081723 -3.94140625 1.09765625 C-2.94140625 0.09765625 -2.94140625 0.09765625 0 0 Z " fill="#888888" transform="translate(75.94140625,267.90234375)"/>
<path d="M0 0 C0.33 0 0.66 0 1 0 C2.32870256 7.80612754 2.32870256 15.19387246 1 23 C0.34 23 -0.32 23 -1 23 C-1.02714434 20.2915983 -1.04690846 17.58347279 -1.0625 14.875 C-1.07087891 14.11445313 -1.07925781 13.35390625 -1.08789062 12.5703125 C-1.10646509 8.2610356 -0.86117265 4.24483526 0 0 Z " fill="#C0C0C0" transform="translate(195,263)"/>
<path d="M0 0 C12.54 0 25.08 0 38 0 C37.67 1.98 37.34 3.96 37 6 C36.34 5.01 35.68 4.02 35 3 C35.33 2.34 35.66 1.68 36 1 C24.12 1 12.24 1 0 1 C0 0.67 0 0.34 0 0 Z " fill="#E5E5E5" transform="translate(96,250)"/>
<path d="M0 0 C3.465 1.98 3.465 1.98 7 4 C7 4.66 7 5.32 7 6 C0.25 9.875 0.25 9.875 -2 11 C-1.40049704 7.31733897 -0.75241109 3.65456815 0 0 Z " fill="#696969" transform="translate(478,468)"/>
<path d="M0 0 C0.33 0 0.66 0 1 0 C1.5505289 6.33108231 -0.06166589 11.37883909 -3 17 C-4.63671875 18.796875 -4.63671875 18.796875 -6 20 C-5.67 18.02 -5.34 16.04 -5 14 C-4.34 14 -3.68 14 -3 14 C-2.95101563 13.32453125 -2.90203125 12.6490625 -2.8515625 11.953125 C-2.77679688 11.06109375 -2.70203125 10.1690625 -2.625 9.25 C-2.55539062 8.36828125 -2.48578125 7.4865625 -2.4140625 6.578125 C-2.00149945 4.00933618 -1.28839043 2.24158985 0 0 Z " fill="#9C9C9C" transform="translate(300,235)"/>
<path d="M0 0 C1.98 0 3.96 0 6 0 C6.33 0.99 6.66 1.98 7 3 C9.31 3.33 11.62 3.66 14 4 C14 4.99 14 5.98 14 7 C9.0276578 5.50829734 4.58154261 3.39542583 0 1 C0 0.67 0 0.34 0 0 Z " fill="#AAAAAA" transform="translate(145,202)"/>
<path d="M0 0 C1.6045556 0.14148989 3.20863767 0.28835686 4.8125 0.4375 C5.70582031 0.51871094 6.59914063 0.59992188 7.51953125 0.68359375 C10 1 10 1 13 2 C9.31282562 4.45811625 7.35654296 4.31118164 3 4 C2.01 3.34 1.02 2.68 0 2 C0 1.34 0 0.68 0 0 Z " fill="#C9C9C9" transform="translate(365,253)"/>
<path d="M0 0 C1.98 0 3.96 0 6 0 C5.34 0.66 4.68 1.32 4 2 C3.35232207 4.57061311 3.35232207 4.57061311 3 7 C2.01 7.33 1.02 7.66 0 8 C0 5.36 0 2.72 0 0 Z " fill="#B9B9B9" transform="translate(72,250)"/>
<path d="M0 0 C0.66 0.33 1.32 0.66 2 1 C0.37660195 2.70884005 -1.29319053 4.37446717 -3 6 C-3.66 6 -4.32 6 -5 6 C-5.33 6.66 -5.66 7.32 -6 8 C-6.99 7.01 -7.98 6.02 -9 5 C-7.54735962 4.1361871 -6.0876837 3.28419546 -4.625 2.4375 C-3.40683594 1.72400391 -3.40683594 1.72400391 -2.1640625 0.99609375 C-1.44992188 0.66738281 -0.73578125 0.33867187 0 0 Z " fill="#C0C0C0" transform="translate(85,205)"/>
<path d="M0 0 C0.66 0 1.32 0 2 0 C1.62403791 2.78211944 1.32681541 4.5879284 -0.4375 6.8125 C-2 8 -2 8 -4 8 C-2.87548273 5.0280615 -1.77706209 2.66559313 0 0 Z " fill="#656565" transform="translate(472,460)"/>
<path d="M0 0 C3.17538332 0.34021964 4.02276865 1.02466604 6.25 3.4375 C8 6 8 6 8 8 C7.34 8 6.68 8 6 8 C6 7.01 6 6.02 6 5 C5.38125 4.9175 4.7625 4.835 4.125 4.75 C2 4 2 4 0.75 1.9375 C0.5025 1.298125 0.255 0.65875 0 0 Z " fill="#B0B0B0" transform="translate(419,236)"/>
<path d="M0 0 C2.97 0 5.94 0 9 0 C9 0.33 9 0.66 9 1 C6.69 1 4.38 1 2 1 C1.67 3.97 1.34 6.94 1 10 C0.67 10 0.34 10 0 10 C-1.125 2.25 -1.125 2.25 0 0 Z " fill="#9C9C9C" transform="translate(384,212)"/>
<path d="M0 0 C1.65 0 3.3 0 5 0 C4.01 0.495 4.01 0.495 3 1 C3 3.64 3 6.28 3 9 C2.01 8.34 1.02 7.68 0 7 C-0.1875 3.375 -0.1875 3.375 0 0 Z " fill="#929292" transform="translate(85,220)"/>
<path d="M0 0 C0 0.66 0 1.32 0 2 C-0.66 2 -1.32 2 -2 2 C-2 2.66 -2 3.32 -2 4 C-4.70879335 5.35439668 -7.00933268 5.06501451 -10 5 C-3.63636364 0 -3.63636364 0 0 0 Z " fill="#AFAFAF" transform="translate(110,193)"/>
<path d="M0 0 C0.33 0 0.66 0 1 0 C1.32374517 5.50366792 1.53286034 9.43672206 -2 14 C-3.125 10.25 -3.125 10.25 -2 8 C-1.34 8 -0.68 8 0 8 C0 5.36 0 2.72 0 0 Z " fill="#8C8C8C" transform="translate(427,245)"/>
<path d="M0 0 C0.33 0.99 0.66 1.98 1 3 C-4.5 6.125 -4.5 6.125 -9 5 C-6.03 3.35 -3.06 1.7 0 0 Z " fill="#989898" transform="translate(174,280)"/>
<path d="M0 0 C4.29 0 8.58 0 13 0 C13 0.33 13 0.66 13 1 C11.5899511 1.41879658 10.17145188 1.80921039 8.75 2.1875 C7.96109375 2.40792969 7.1721875 2.62835938 6.359375 2.85546875 C4 3 4 3 0 0 Z " fill="#F3F3F3" transform="translate(217,213)"/>
<path d="M0 0 C1.98 0.495 1.98 0.495 4 1 C3.01 1.33 2.02 1.66 1 2 C1.66 3.65 2.32 5.3 3 7 C2.34 7.66 1.68 8.32 1 9 C-1.125 2.25 -1.125 2.25 0 0 Z " fill="#ADADAD" transform="translate(397,248)"/>
<path d="M0 0 C-6.75 4 -6.75 4 -9 4 C-8 1 -8 1 -5.625 -0.25 C-3 -1 -3 -1 0 0 Z " fill="#ABABAB" transform="translate(154,310)"/>
<path d="M0 0 C3.4375 0.8125 3.4375 0.8125 7 2 C7.33 2.99 7.66 3.98 8 5 C2.25 3.375 2.25 3.375 0 0 Z " fill="#989898" transform="translate(399,258)"/>
<path d="M0 0 C-2.66666667 1.33333333 -5.33333333 2.66666667 -8 4 C-8 3.01 -8 2.02 -8 1 C-4.93251126 -0.86240388 -3.40254489 -1.2151946 0 0 Z " fill="#B0B0B0" transform="translate(326,221)"/>
<path d="M0 0 C0.99 0.33 1.98 0.66 3 1 C0.03 3.475 0.03 3.475 -3 6 C-2.625 3.5625 -2.625 3.5625 -2 1 C-1.34 0.67 -0.68 0.34 0 0 Z " fill="#D3D3D3" transform="translate(311,219)"/>
<path d="" fill="#000000" transform="translate(0,0)"/>
<path d="" fill="#000000" transform="translate(0,0)"/>
<path d="" fill="#000000" transform="translate(0,0)"/>
<path d="" fill="#000000" transform="translate(0,0)"/>
<path d="" fill="#000000" transform="translate(0,0)"/>
<path d="" fill="#000000" transform="translate(0,0)"/>
<path d="" fill="#000000" transform="translate(0,0)"/>
<path d="" fill="#000000" transform="translate(0,0)"/>
<path d="" fill="#000000" transform="translate(0,0)"/>
<path d="" fill="#000000" transform="translate(0,0)"/>
<path d="" fill="#000000" transform="translate(0,0)"/>
<path d="" fill="#000000" transform="translate(0,0)"/>
<path d="" fill="#000000" transform="translate(0,0)"/>
<path d="" fill="#000000" transform="translate(0,0)"/>
<path d="" fill="#000000" transform="translate(0,0)"/>
<path d="" fill="#000000" transform="translate(0,0)"/>
<path d="" fill="#000000" transform="translate(0,0)"/>
<path d="" fill="#000000" transform="translate(0,0)"/>
<path d="" fill="#000000" transform="translate(0,0)"/>
<path d="" fill="#000000" transform="translate(0,0)"/>
<path d="" fill="#000000" transform="translate(0,0)"/>
<path d="" fill="#000000" transform="translate(0,0)"/>
<path d="" fill="#000000" transform="translate(0,0)"/>
<path d="" fill="#000000" transform="translate(0,0)"/>
<path d="" fill="#000000" transform="translate(0,0)"/>
<path d="" fill="#000000" transform="translate(0,0)"/>
<path d="" fill="#000000" transform="translate(0,0)"/>
<path d="" fill="#000000" transform="translate(0,0)"/>
<path d="" fill="#000000" transform="translate(0,0)"/>
<path d="" fill="#000000" transform="translate(0,0)"/>
<path d="" fill="#000000" transform="translate(0,0)"/>
<path d="" fill="#000000" transform="translate(0,0)"/>
<path d="" fill="#000000" transform="translate(0,0)"/>
<path d="" fill="#000000" transform="translate(0,0)"/>
<path d="" fill="#000000" transform="translate(0,0)"/>
<path d="" fill="#000000" transform="translate(0,0)"/>
<path d="" fill="#000000" transform="translate(0,0)"/>
<path d="" fill="#000000" transform="translate(0,0)"/>
<path d="" fill="#000000" transform="translate(0,0)"/>
<path d="" fill="#000000" transform="translate(0,0)"/>
<path d="" fill="#000000" transform="translate(0,0)"/>
<path d="" fill="#000000" transform="translate(0,0)"/>
<path d="" fill="#000000" transform="translate(0,0)"/>
<path d="" fill="#000000" transform="translate(0,0)"/>
<path d="" fill="#000000" transform="translate(0,0)"/>
<path d="" fill="#000000" transform="translate(0,0)"/>
<path d="" fill="#000000" transform="translate(0,0)"/>
<path d="" fill="#000000" transform="translate(0,0)"/>
<path d="" fill="#000000" transform="translate(0,0)"/>
<path d="" fill="#000000" transform="translate(0,0)"/>
<path d="" fill="#000000" transform="translate(0,0)"/>
<path d="" fill="#000000" transform="translate(0,0)"/>
<path d="" fill="#000000" transform="translate(0,0)"/>
<path d="" fill="#000000" transform="translate(0,0)"/>
<path d="" fill="#000000" transform="translate(0,0)"/>
<path d="" fill="#000000" transform="translate(0,0)"/>
<path d="" fill="#000000" transform="translate(0,0)"/>
<path d="" fill="#000000" transform="translate(0,0)"/>
<path d="" fill="#000000" transform="translate(0,0)"/>
<path d="" fill="#000000" transform="translate(0,0)"/>
<path d="" fill="#000000" transform="translate(0,0)"/>
<path d="" fill="#000000" transform="translate(0,0)"/>
<path d="" fill="#000000" transform="translate(0,0)"/>
<path d="" fill="#000000" transform="translate(0,0)"/>
<path d="" fill="#000000" transform="translate(0,0)"/>
<path d="" fill="#000000" transform="translate(0,0)"/>
</svg>
